<?xml version="1.0" encoding="UTF-8"?>
<svg width="96px" height="96px" viewBox="0 0 96 96" version="1.1" xmlns="http://www.w3.org/2000/svg" xmlns:xlink="http://www.w3.org/1999/xlink">
    <!-- Generator: Sketch 43.1 (39012) - http://www.bohemiancoding.com/sketch -->
    <title>codepen</title>
    <desc>Created with Sketch.</desc>
    <defs></defs>
    <g id="Page-1" stroke="none" stroke-width="1" fill="none" fill-rule="evenodd">
        <g id="codepen" fill-rule="nonzero">
            <g id="github-logo" fill="#FAFAFA">
                <path d="M48,0 C21.489,0 0,21.49 0,48 C0,74.51 21.489,96 48,96 C74.509,96 96,74.51 96,48 C96,21.49 74.509,0 48,0 Z" id="Shape"></path>
            </g>
            <g id="001-3d-outlined-shape" transform="translate(18.000000, 18.000000)" fill="#40C4FF">
                <path d="M31.64625,0.778125 C30.045,-0.28125 27.95625,-0.256875 26.379375,0.841875 L2.784375,17.27625 C1.52625,18.15375 0.77625,19.588125 0.77625,21.12375 L0.77625,38.83125 C0.77625,40.40625 1.565625,41.874375 2.88,42.7425 L26.86125,58.595625 C28.42875,59.6325 30.465,59.6325 32.0325,58.595625 L56.49,42.436875 C57.8025,41.56875 58.59375,40.100625 58.59375,38.525625 L58.59375,21.1275 C58.59375,19.554375 57.804375,18.08625 56.491875,17.218125 L31.64625,0.778125 Z M49.914375,19.959375 L40.875,26.02875 L32.398125,19.86375 L32.34375,7.738125 L49.914375,19.959375 Z M26.210625,7.749375 L26.210625,19.61625 L17.52375,25.69125 L8.859375,19.880625 L26.210625,7.749375 Z M6.48375,25.72875 L12.091875,29.48625 L6.48375,33.410625 L6.48375,25.72875 L6.48375,25.72875 Z M26.35875,51.028125 L8.863125,39.294375 L17.6025,33.185625 L26.35875,39.06 L26.35875,51.028125 Z M23.03625,29.38875 L28.700625,25.426875 L35.29875,29.76375 L29.450625,33.691875 L23.03625,29.38875 Z M32.53875,51.028125 L32.53875,39.05625 L40.906875,33.448125 L49.91625,39.37125 L32.53875,51.028125 Z M52.41375,33.613125 L46.47375,29.709375 L52.41375,25.725 L52.41375,33.613125 Z" id="Shape"></path>
            </g>
        </g>
    </g>
</svg>