<?xml version="1.0" encoding="UTF-8"?>
<svg width="96px" height="96px" viewBox="0 0 96 96" version="1.1" xmlns="http://www.w3.org/2000/svg" xmlns:xlink="http://www.w3.org/1999/xlink">
    <!-- Generator: Sketch 43.1 (39012) - http://www.bohemiancoding.com/sketch -->
    <title>github</title>
    <desc>Created with Sketch.</desc>
    <defs></defs>
    <g id="Page-1" stroke="none" stroke-width="1" fill="none" fill-rule="evenodd">
        <g id="github" fill-rule="nonzero">
            <g id="github-logo" fill="#FAFAFA">
                <path d="M48,0 C21.489,0 0,21.49 0,48 C0,74.51 21.489,96 48,96 C74.509,96 96,74.51 96,48 C96,21.49 74.509,0 48,0 Z" id="Shape"></path>
            </g>
            <g id="github-big-logo" transform="translate(18.000000, 23.000000)" fill="#40C4FF">
                <path d="M43.7436326,0.104347826 C44.5122338,2.01277174 45.0264301,5.20706522 44.2727349,7.53505435 C47.3323591,10.3881793 48.4154906,17.3046196 46.9131106,22.9839674 C51.2979958,23.3548913 56.5163674,22.8161685 59.8954071,24.2725543 C56.7409603,23.83125 52.4234656,22.9732337 48.3730271,23.2629076 C47.6044259,23.3251359 46.4488935,23.2304348 46.506263,24.4052989 C51.2329854,24.8139946 55.9123591,25.236413 59.7706472,26.5491848 C55.9248852,25.8724185 51.2854697,24.84375 46.506263,24.6921196 C44.5597077,28.8933424 40.5890605,30.9777174 35.108643,31.4163043 C35.6951148,32.810462 36.8431315,33.3274457 37.0976618,35.5877717 C37.5068894,38.9038043 36.486263,43.7845109 37.499499,46.0070652 C38.0085595,47.0790761 38.8246347,47.0952446 39.3612526,47.9913043 C38.0210856,49.7400815 34.694405,47.8017663 34.3275157,46.0070652 C33.6836743,42.9021739 35.3158246,38.0918478 33.5239666,35.9884511 C33.6487265,39.3668478 32.8077244,44.1202446 33.6487265,47.1494565 C33.9980793,48.3459239 34.9838831,48.7952446 34.731858,49.8754076 C28.4927349,50.565625 31.1006681,41.1290761 30.0750313,35.5607337 C29.1392067,35.6554348 29.5484342,37.0820652 29.545929,37.702038 C29.5210021,43.1512228 30.571691,50.5873641 25.1810856,49.8699728 C25.0163674,48.7357337 25.9123591,48.3459239 26.2416701,47.2875 C27.2324843,44.2394022 26.0595407,39.6726902 26.5062213,35.9884511 C24.4498121,37.6884511 26.7308142,43.5517663 25.4505219,46.5809783 C24.7192484,48.3025815 22.345929,49.0633152 20.5415449,48.2998641 C20.7761587,47.0139946 22.0064718,47.2144022 22.5305637,46.0070652 C23.2593319,44.3152174 22.5330689,41.8978261 22.7926096,39.4182065 C18.9817954,40.2466033 16.0293946,39.2990489 14.5744885,36.6976902 C13.9331524,35.5418478 13.7783299,34.1558424 12.9921921,33.1353261 C12.2259708,32.109375 10.9757411,31.9794837 10.6013361,30.5798913 C15.3305637,29.3319293 15.5078079,35.8476902 19.7529019,35.9884511 C21.0606263,36.0452446 21.7318998,35.5932065 22.9347808,35.2873641 C23.2791232,33.6415761 23.9904802,32.4288043 25.0485595,31.5517663 C19.7778288,30.7830163 15.4203758,28.9990489 13.3964092,24.6949728 C8.59979123,24.9521739 4.20989562,25.6478261 0.132025052,26.7116848 C3.83311065,25.2607337 8.37507307,24.7274457 13.256618,24.5623641 C12.9621294,22.686413 10.4465136,23.2006793 8.88926931,23.2657609 C5.97206681,23.392663 2.31093946,23.7959239 0,24.2724185 C3.35912317,22.9758152 8.04588727,23.1381793 12.5829645,23.1273098 C11.200334,18.4035326 11.6770772,10.8971467 14.7142797,8.09809783 C13.8557411,5.75380435 14.1227975,1.93695652 15.2383716,0.104347826 C18.6249269,0.263994565 20.6714405,1.85584239 22.8026305,3.39877717 C25.4354906,2.58125 28.1932359,2.16983696 31.8093946,2.38641304 C33.3291858,2.47839674 34.9039666,3.21480978 36.034572,3.10923913 C37.1501461,2.99008152 38.3804593,1.62853261 39.4835073,1.09252717 C40.8985804,0.421059783 42.108977,0.163858696 43.7436326,0.104347826 Z" id="Github__x28_alt_x29__3_"></path>
            </g>
        </g>
    </g>
</svg>