<?xml version="1.0" encoding="UTF-8"?>
<svg width="96px" height="96px" viewBox="0 0 96 96" version="1.1" xmlns="http://www.w3.org/2000/svg" xmlns:xlink="http://www.w3.org/1999/xlink">
    <!-- Generator: Sketch 43.1 (39012) - http://www.bohemiancoding.com/sketch -->
    <title>linkedin</title>
    <desc>Created with Sketch.</desc>
    <defs></defs>
    <g id="Page-1" stroke="none" stroke-width="1" fill="none" fill-rule="evenodd">
        <g id="linkedin" fill-rule="nonzero">
            <ellipse id="Oval" fill="#FAFAFA" cx="47.6584779" cy="48.0816842" rx="47.6584779" ry="47.2404211"></ellipse>
            <path d="M76.1339469,51.8829474 L76.1339469,71.3591579 L64.7422301,71.3591579 L64.7422301,53.1882105 C64.7422301,48.6256842 63.0974867,45.5098947 58.972885,45.5098947 C55.8252743,45.5098947 53.9553982,47.6075789 53.1296283,49.6387368 C52.8297345,50.3646316 52.7524248,51.3726316 52.7524248,52.3907368 L52.7524248,71.3583158 L41.3598584,71.3583158 C41.3598584,71.3583158 41.5127788,40.5827368 41.3598584,37.3970526 L52.7532743,37.3970526 L52.7532743,42.2096842 C52.7303363,42.2475789 52.6980531,42.2846316 52.6776637,42.3208421 L52.7532743,42.3208421 L52.7532743,42.2096842 C54.2671858,39.9006316 56.9670796,36.5995789 63.020177,36.5995789 C70.5149735,36.5995789 76.1339469,41.4534737 76.1339469,51.8829474 L76.1339469,51.8829474 Z M29.4422655,21.0265263 C25.5453451,21.0265263 22.995823,23.5621053 22.995823,26.8934737 C22.995823,30.1541053 25.4714336,32.7629474 29.2927434,32.7629474 L29.3666549,32.7629474 C33.3400354,32.7629474 35.8105487,30.1541053 35.8105487,26.8934737 C35.7349381,23.5621053 33.3400354,21.0265263 29.4422655,21.0265263 L29.4422655,21.0265263 Z M23.6729204,71.3591579 L35.0612389,71.3591579 L35.0612389,37.3970526 L23.6729204,37.3970526 L23.6729204,71.3591579 Z" id="Shape" fill="#40C4FF"></path>
        </g>
    </g>
</svg>