<?xml version="1.0" encoding="UTF-8"?>
<svg width="96px" height="96px" viewBox="0 0 96 96" version="1.1" xmlns="http://www.w3.org/2000/svg" xmlns:xlink="http://www.w3.org/1999/xlink">
    <!-- Generator: Sketch 43.1 (39012) - http://www.bohemiancoding.com/sketch -->
    <title>twitter</title>
    <desc>Created with Sketch.</desc>
    <defs></defs>
    <g id="Page-1" stroke="none" stroke-width="1" fill="none" fill-rule="evenodd">
        <g id="twitter" fill-rule="nonzero">
            <circle id="Oval" fill="#FAFAFA" cx="47.6593274" cy="47.6584779" r="47.6584779"></circle>
            <path d="M76.851823,34.2507611 C74.8094867,35.1563894 72.612531,35.7689204 70.308531,36.0424779 C72.6609558,34.6330619 74.4662655,32.4029735 75.3183717,29.7413097 C73.1171681,31.0470796 70.6780885,31.9943363 68.0843894,32.5049204 C66.0063717,30.291823 63.0456637,28.9087434 59.7672212,28.9087434 C53.4770973,28.9087434 48.3755044,34.0103363 48.3755044,40.3004602 C48.3755044,41.1933451 48.4766018,42.0624425 48.672,42.896708 C39.204531,42.4218053 30.8100531,37.8868673 25.1910796,30.992708 C24.2106903,32.6748319 23.6482832,34.6330619 23.6482832,36.7204248 C23.6482832,40.6717168 25.660885,44.16 28.7158938,46.2023363 C26.8494159,46.1437168 25.0916814,45.6314336 23.556531,44.7759292 C23.5556814,44.824354 23.5556814,44.8727788 23.5556814,44.920354 C23.5556814,50.4399292 27.4840354,55.0436814 32.6943717,56.0894867 C31.739469,56.3511504 30.7310442,56.4896283 29.6937345,56.4896283 C28.9580177,56.4896283 28.2452389,56.419115 27.5503009,56.2865841 C28.999646,60.8113274 33.2058053,64.1050619 38.1918584,64.1976637 C34.2923894,67.2535221 29.3810973,69.0741239 24.0424779,69.0741239 C23.1249558,69.0741239 22.2159292,69.0206018 21.3264425,68.9144071 C26.3651681,72.147823 32.3545487,74.0329912 38.7873982,74.0329912 C59.740885,74.0329912 71.1997168,56.6748319 71.1997168,41.619823 C71.1997168,41.1262301 71.1886726,40.6343363 71.1665841,40.1466903 C73.3941239,38.5410265 75.3251681,36.5352212 76.851823,34.2507611 L76.851823,34.2507611 Z" id="Shape" fill="#40C4FF"></path>
        </g>
    </g>
</svg>